# xmcd CD database file
#
# Track frame offsets:
#	150
#	12470
#	24077
#	37032
#	48142
#	60862
#	74055
#	93350
#	117612
#	133377
#	155437
#	174370
#	193280
#	217590
#	240695
#	264825
#	287277
#	310222
#
# Disc length: 4459 seconds
#
# Revision: 3
# Processed by: cddbd v1.5.2PL0 Copyright (c) Steve Scherf et al.
# Submitted via: CDex 1.51
#
DISCID=f5116912
DTITLE=Various Artist - The Story Of The Blues [CD2)
DYEAR=2003
DGENRE=Blues
TTITLE0=Blind Boy Fuller and Sonny Terry - I Want Some Of Your Pie
TTITLE1=Brownie McGhee - Million Lonesome Women
TTITLE2=Joe Williams and Sonny Boy Williamson - Wild Cow Moan
TTITLE3=Big Bill Broonzy - All By Myself
TTITLE4=Joe Turner and Pete Johnson - Roll 'em Pete
TTITLE5=Lightnin' Hopkins - Bald Headed Woman
TTITLE6=Willie Dixon - You Shook Me
TTITLE7=Muddy Waters - Mannish Boy
TTITLE8=Taj Mahal - She Cauth The Katy And Left Me A Mule To Ride
TTITLE9=Jeff Beck Group - I Ain't Superstitious
TTITLE10=The Electric Flag - Killing Floor
TTITLE11=Janis Joplin - One Good Man
TTITLE12=Santana - Black Magic Woman - Gypsy Queen
TTITLE13=Johnny Winter - Highway 61 Revisited
TTITLE14=Stevie Ray Vaughan and Double Trouble - Texas Flood
TTITLE15=Keb' Mo' - Dangerous Mood
TTITLE16=Bob Dylan - Cry A While
TTITLE17=Little Axe - Ride On
EXTD=YEAR: 2003
EXTT0=
EXTT1=
EXTT2=
EXTT3=
EXTT4=
EXTT5=
EXTT6=
EXTT7=
EXTT8=
EXTT9=
EXTT10=
EXTT11=
EXTT12=
EXTT13=
EXTT14=
EXTT15=
EXTT16=
EXTT17=
PLAYORDER=
